HIERARCHY
ROOT Root
{
  OFFSET 0.0 0.0 0.0
  CHANNELS 6 Xposition Yposition Zposition Zrotation Yrotation Xrotation
  JOINT Hips
  {
    OFFSET 0.0 100.0 0.0
    CHANNELS 6 Xposition Yposition Zposition Zrotation Yrotation Xrotation
    JOINT Spine1
    {
      OFFSET 5.003913 -0.037094 -0.013727
      CHANNELS 3 Zrotation Yrotation Xrotation
      JOINT Spine2
      {
        OFFSET 7.125363 -1e-06 0.0
        CHANNELS 3 Zrotation Yrotation Xrotation
        JOINT Chest
        {
          OFFSET 7.594027 1e-06 0.0
          CHANNELS 3 Zrotation Yrotation Xrotation
          JOINT Neck1
          {
            OFFSET 26.313086 -0.460272 -0.181672
            CHANNELS 3 Zrotation Yrotation Xrotation
            JOINT Neck2
            {
              OFFSET 8.045911 0.0 0.0
              CHANNELS 3 Zrotation Yrotation Xrotation
              JOINT Head
              {
                OFFSET 6.432774 0.0 0.0
                CHANNELS 3 Zrotation Yrotation Xrotation
                JOINT HeadEnd
                {
                  OFFSET 16.169773 0.06451 0.00362
                  CHANNELS 3 Zrotation Yrotation Xrotation
                }
                JOINT Jaw
                {
                  OFFSET 0.108741 3.12938 0.002639
                  CHANNELS 3 Zrotation Yrotation Xrotation
                }
                JOINT LeftEye
                {
                  OFFSET 4.45173 8.166359 3.206392
                  CHANNELS 3 Zrotation Yrotation Xrotation
                }
                JOINT RightEye
                {
                  OFFSET 4.436895 8.135758 -3.222429
                  CHANNELS 3 Zrotation Yrotation Xrotation
                }
              }
            }
          }
          JOINT LeftShoulder
          {
            OFFSET 23.218927 5.195579 1.621656
            CHANNELS 3 Zrotation Yrotation Xrotation
            JOINT LeftArm
            {
              OFFSET 15.902118 2e-06 -2e-06
              CHANNELS 3 Zrotation Yrotation Xrotation
              JOINT LeftForeArm
              {
                OFFSET 28.739307 0.0 -1e-06
                CHANNELS 3 Zrotation Yrotation Xrotation
                JOINT LeftHand
                {
                  OFFSET 27.093981 -4e-06 0.0
                  CHANNELS 3 Zrotation Yrotation Xrotation
                  JOINT LeftHandThumb1
                  {
                    OFFSET 2.276781 3.380274 0.83384
                    CHANNELS 3 Zrotation Yrotation Xrotation
                    JOINT LeftHandThumb2
                    {
                      OFFSET 4.705309 -1e-06 -1e-06
                      CHANNELS 3 Zrotation Yrotation Xrotation
                      JOINT LeftHandThumb3
                      {
                        OFFSET 2.798515 0.0 3e-06
                        CHANNELS 3 Zrotation Yrotation Xrotation
                        JOINT LeftHandThumbEnd
                        {
                          OFFSET 3.180793 4e-06 -4e-06
                          CHANNELS 3 Zrotation Yrotation Xrotation
                        }
                      }
                    }
                  }
                  JOINT LeftHandIndex1
                  {
                    OFFSET 3.247786 2.352677 0.137192
                    CHANNELS 3 Zrotation Yrotation Xrotation
                    JOINT LeftHandIndex2
                    {
                      OFFSET 6.367095 1e-06 0.0
                      CHANNELS 3 Zrotation Yrotation Xrotation
                      JOINT LeftHandIndex3
                      {
                        OFFSET 3.662364 0.0 0.0
                        CHANNELS 3 Zrotation Yrotation Xrotation
                        JOINT LeftHandIndex4
                        {
                          OFFSET 2.329242 4e-06 -4e-06
                          CHANNELS 3 Zrotation Yrotation Xrotation
                          JOINT LeftHandIndexEnd
                          {
                            OFFSET 2.767823 1e-06 0.0
                            CHANNELS 3 Zrotation Yrotation Xrotation
                          }
                        }
                      }
                    }
                  }
                  JOINT LeftHandMiddle1
                  {
                    OFFSET 3.163612 0.945023 -0.406112
                    CHANNELS 3 Zrotation Yrotation Xrotation
                    JOINT LeftHandMiddle2
                    {
                      OFFSET 6.276789 3e-06 0.0
                      CHANNELS 3 Zrotation Yrotation Xrotation
                      JOINT LeftHandMiddle3
                      {
                        OFFSET 4.35652 -1e-06 4e-06
                        CHANNELS 3 Zrotation Yrotation Xrotation
                        JOINT LeftHandMiddle4
                        {
                          OFFSET 2.996877 0.0 8e-06
                          CHANNELS 3 Zrotation Yrotation Xrotation
                          JOINT LeftHandMiddleEnd
                          {
                            OFFSET 2.323256 3e-06 -4e-06
                            CHANNELS 3 Zrotation Yrotation Xrotation
                          }
                        }
                      }
                    }
                  }
                  JOINT LeftHandRing1
                  {
                    OFFSET 2.882606 -0.309162 0.107445
                    CHANNELS 3 Zrotation Yrotation Xrotation
                    JOINT LeftHandRing2
                    {
                      OFFSET 6.033198 0.0 4e-06
                      CHANNELS 3 Zrotation Yrotation Xrotation
                      JOINT LeftHandRing3
                      {
                        OFFSET 4.350578 3e-06 0.0
                        CHANNELS 3 Zrotation Yrotation Xrotation
                        JOINT LeftHandRing4
                        {
                          OFFSET 2.651321 2e-06 -7e-06
                          CHANNELS 3 Zrotation Yrotation Xrotation
                          JOINT LeftHandRingEnd
                          {
                            OFFSET 1.937663 1e-06 -4e-06
                            CHANNELS 3 Zrotation Yrotation Xrotation
                          }
                        }
                      }
                    }
                  }
                  JOINT LeftHandPinky1
                  {
                    OFFSET 2.865315 -1.525436 0.575687
                    CHANNELS 3 Zrotation Yrotation Xrotation
                    JOINT LeftHandPinky2
                    {
                      OFFSET 5.54936 1e-06 -8e-06
                      CHANNELS 3 Zrotation Yrotation Xrotation
                      JOINT LeftHandPinky3
                      {
                        OFFSET 3.070974 0.0 -4e-06
                        CHANNELS 3 Zrotation Yrotation Xrotation
                        JOINT LeftHandPinky4
                        {
                          OFFSET 1.549672 1e-06 0.0
                          CHANNELS 3 Zrotation Yrotation Xrotation
                          JOINT LeftHandPinkyEnd
                          {
                            OFFSET 1.952123 0.0 0.0
                            CHANNELS 3 Zrotation Yrotation Xrotation
                          }
                        }
                      }
                    }
                  }
                }
              }
            }
          }
          JOINT RightShoulder
          {
            OFFSET 23.161716 5.296122 -1.380114
            CHANNELS 3 Zrotation Yrotation Xrotation
            JOINT RightArm
            {
              OFFSET -16.027195 -2e-06 1.1e-05
              CHANNELS 3 Zrotation Yrotation Xrotation
              JOINT RightForeArm
              {
                OFFSET -28.736639 4e-06 2e-06
                CHANNELS 3 Zrotation Yrotation Xrotation
                JOINT RightHand
                {
                  OFFSET -27.133619 6e-06 0.0
                  CHANNELS 3 Zrotation Yrotation Xrotation
                  JOINT RightHandThumb1
                  {
                    OFFSET -2.274328 -3.351035 -0.83067
                    CHANNELS 3 Zrotation Yrotation Xrotation
                    JOINT RightHandThumb2
                    {
                      OFFSET -4.703594 -3e-06 2e-06
                      CHANNELS 3 Zrotation Yrotation Xrotation
                      JOINT RightHandThumb3
                      {
                        OFFSET -2.794935 -4e-06 -3e-06
                        CHANNELS 3 Zrotation Yrotation Xrotation
                        JOINT RightHandThumbEnd
                        {
                          OFFSET -3.183852 4e-06 1e-06
                          CHANNELS 3 Zrotation Yrotation Xrotation
                        }
                      }
                    }
                  }
                  JOINT RightHandIndex1
                  {
                    OFFSET -3.253496 -2.33755 -0.127667
                    CHANNELS 3 Zrotation Yrotation Xrotation
                    JOINT RightHandIndex2
                    {
                      OFFSET -6.344434 0.0 0.0
                      CHANNELS 3 Zrotation Yrotation Xrotation
                      JOINT RightHandIndex3
                      {
                        OFFSET -3.654871 0.0 -8e-06
                        CHANNELS 3 Zrotation Yrotation Xrotation
                        JOINT RightHandIndex4
                        {
                          OFFSET -2.327586 -1e-06 0.0
                          CHANNELS 3 Zrotation Yrotation Xrotation
                          JOINT RightHandIndexEnd
                          {
                            OFFSET -2.770001 3e-06 8e-06
                            CHANNELS 3 Zrotation Yrotation Xrotation
                          }
                        }
                      }
                    }
                  }
                  JOINT RightHandMiddle1
                  {
                    OFFSET -3.168223 -0.944764 0.411762
                    CHANNELS 3 Zrotation Yrotation Xrotation
                    JOINT RightHandMiddle2
                    {
                      OFFSET -6.266691 -1e-06 -4e-06
                      CHANNELS 3 Zrotation Yrotation Xrotation
                      JOINT RightHandMiddle3
                      {
                        OFFSET -4.348901 0.0 0.0
                        CHANNELS 3 Zrotation Yrotation Xrotation
                        JOINT RightHandMiddle4
                        {
                          OFFSET -3.00024 2e-06 -4e-06
                          CHANNELS 3 Zrotation Yrotation Xrotation
                          JOINT RightHandMiddleEnd
                          {
                            OFFSET -2.321477 -4e-06 -4e-06
                            CHANNELS 3 Zrotation Yrotation Xrotation
                          }
                        }
                      }
                    }
                  }
                  JOINT RightHandRing1
                  {
                    OFFSET -2.885654 0.293261 -0.119232
                    CHANNELS 3 Zrotation Yrotation Xrotation
                    JOINT RightHandRing2
                    {
                      OFFSET -6.032835 -1e-06 -4e-06
                      CHANNELS 3 Zrotation Yrotation Xrotation
                      JOINT RightHandRing3
                      {
                        OFFSET -4.33881 0.0 -4e-06
                        CHANNELS 3 Zrotation Yrotation Xrotation
                        JOINT RightHandRing4
                        {
                          OFFSET -2.654903 -4e-06 -4e-06
                          CHANNELS 3 Zrotation Yrotation Xrotation
                          JOINT RightHandRingEnd
                          {
                            OFFSET -1.935122 0.0 4e-06
                            CHANNELS 3 Zrotation Yrotation Xrotation
                          }
                        }
                      }
                    }
                  }
                  JOINT RightHandPinky1
                  {
                    OFFSET -2.866241 1.503904 -0.60527
                    CHANNELS 3 Zrotation Yrotation Xrotation
                    JOINT RightHandPinky2
                    {
                      OFFSET -5.553177 -2e-06 0.0
                      CHANNELS 3 Zrotation Yrotation Xrotation
                      JOINT RightHandPinky3
                      {
                        OFFSET -3.062664 -1e-06 -4e-06
                        CHANNELS 3 Zrotation Yrotation Xrotation
                        JOINT RightHandPinky4
                        {
                          OFFSET -1.546529 2e-06 4e-06
                          CHANNELS 3 Zrotation Yrotation Xrotation
                          JOINT RightHandPinkyEnd
                          {
                            OFFSET -1.952341 0.0 -4e-06
                            CHANNELS 3 Zrotation Yrotation Xrotation
                          }
                        }
                      }
                    }
                  }
                }
              }
            }
          }
        }
      }
    }
    JOINT LeftLeg
    {
      OFFSET -8.443107 2.567604 10.043214
      CHANNELS 3 Zrotation Yrotation Xrotation
      JOINT LeftShin
      {
        OFFSET 43.229198 1e-06 -1e-06
        CHANNELS 3 Zrotation Yrotation Xrotation
        JOINT LeftFoot
        {
          OFFSET 42.298611 1e-06 1e-06
          CHANNELS 3 Zrotation Yrotation Xrotation
          JOINT LeftToeBase
          {
            OFFSET 14.165858 1e-06 0.0
            CHANNELS 3 Zrotation Yrotation Xrotation
            JOINT LeftToeEnd
            {
              OFFSET 6.7141 -0.234461 0.0
              CHANNELS 3 Zrotation Yrotation Xrotation
            }
          }
        }
      }
    }
    JOINT RightLeg
    {
      OFFSET -8.303923 2.592729 -10.047278
      CHANNELS 3 Zrotation Yrotation Xrotation
      JOINT RightShin
      {
        OFFSET -43.369682 0.0 1e-06
        CHANNELS 3 Zrotation Yrotation Xrotation
        JOINT RightFoot
        {
          OFFSET -42.260784 4e-06 2e-06
          CHANNELS 3 Zrotation Yrotation Xrotation
          JOINT RightToeBase
          {
            OFFSET -14.222245 -2e-06 -1e-06
            CHANNELS 3 Zrotation Yrotation Xrotation
            JOINT RightToeEnd
            {
              OFFSET -6.660062 0.232574 -2e-06
              CHANNELS 3 Zrotation Yrotation Xrotation
            }
          }
        }
      }
    }
  }
}
MOTION
Frames: 5
Frame Time: 0.03333333333333333
0.0 0.0 0.0 0.0 -0.0 0.0 -0.871085 99.706818 5.660797 90.202095 3.39386 90.371078 -5.74298 0.424648 -0.318816 -12.990131 -0.797606 -0.424432 17.766312 1.602236 -2.33817 22.282192 7.329755 2.159919 -2.611518 -0.532107 0.744454 -26.762699 1.514003 -1.784721 6e-06 -0.0 -0.0 0.040227 -0.03361 0.082016 0.077886 -0.043277 0.085926 0.060944 -0.01599 0.073819 -154.318634 -76.760193 169.741364 49.137867 -51.602467 -15.499564 79.550262 -0.406778 -0.618805 10.722151 9.569172 -90.232841 17.636635 -26.322729 52.411186 -19.46666 -14.395597 29.410389 0.0 -8.774821 -1e-06 16.583565 -17.729269 5.847072 -0.609777 -1.795653 -3.889328 -4.807091 -11.046814 -2.937849 4e-06 -20.976015 -1e-06 -5.01997 -25.033556 -4.03188 5e-06 1e-06 -1e-06 -10.634534 -5.686972 -3.565587 10.573274 -17.922951 -3.113901 4e-06 -13.821208 2e-06 -0.501777 -31.181505 -4.027017 -10.568453 -58.91291 6.288837 -13.982712 -7.150199 -2.875042 13.772731 -8.401493 -3.21824 0.347735 -34.211544 0.771653 -0.96303 -17.73337 2.621021 -1e-06 -0.0 0.0 -17.346418 -20.095221 -4.20178 21.757559 -1.638376 3.86643 1e-06 -6.338824 1e-06 -1.69759 -22.591743 -6.194007 -0.0 -5e-06 -2e-06 8.678277 -71.568069 -174.313324 64.56469 -33.154789 -8.34216 95.654823 -0.236594 1.38139 13.769287 -2.736418 25.652517 22.182116 -20.375885 49.933331 -16.701811 -16.743528 28.476534 -2e-06 -12.6906 -1e-06 15.784757 -17.420139 2.495811 -0.105919 -1.513851 -4.275881 -5.03904 -5.612874 -2.953558 4e-06 -11.02052 -4e-06 -6.111297 -15.895329 -3.840475 1e-06 -0.0 1e-06 -10.283371 -5.680284 -4.341841 11.028293 -11.302405 -2.372633 -1.384268 -14.238577 -6.320123 -0.625435 -26.924183 -3.827605 -4.935081 -49.558933 -2.842601 -13.708526 -7.363476 -3.720941 18.141148 -14.052734 -3.242674 5e-06 -18.787266 -3e-06 -0.429712 -8.456041 2.555502 -0.0 -0.0 1e-06 -15.923534 -20.094481 -5.473588 30.419207 -7.190823 1.735927 3e-06 -8.162925 -0.0 -1.861902 -22.861467 -6.167943 0.0 -3e-06 -2e-06 -174.960098 -8.220638 -7.581715 10.276891 -0.07408 0.157112 -78.197258 7.411885 -6.272426 -6.32067 1.610681 2.128835 -0.999997 0.0 -0.0 2.909979 -5.082563 -7.44063 12.818521 -0.005169 0.153824 -80.670761 -0.595486 -4.485885 -6.188684 0.651145 1.666399 -1.000002 0.0 0.0 
0.0 0.0 0.0 0.0 -0.0 0.0 -0.839016 99.701012 5.756489 90.209358 3.452003 90.473885 -5.700868 0.372876 -0.352194 -12.925281 -0.764492 -0.407849 17.788679 1.546687 -2.355285 22.289364 7.459174 2.155028 -2.661742 -0.487785 0.656397 -26.866041 1.542696 -1.960126 6e-06 -0.0 0.0 0.033965 -0.041424 0.087391 0.05183 -0.053177 0.092042 0.021951 -0.020532 0.076883 -153.445404 -77.053322 168.920135 47.913311 -51.143074 -15.444782 80.243507 -0.508436 -0.842118 10.685088 9.430807 -90.478844 17.636635 -26.322737 52.411213 -19.466665 -14.395602 29.410395 -1e-06 -8.774822 -2e-06 16.555311 -17.847155 5.953865 -0.609776 -1.795654 -3.889329 -4.807089 -11.04681 -2.93785 3e-06 -20.976017 0.0 -5.019971 -25.033558 -4.03188 5e-06 0.0 -1e-06 -10.634537 -5.68697 -3.565589 10.573275 -17.922953 -3.113901 3e-06 -13.821211 2e-06 -0.501776 -31.181511 -4.027017 -10.698299 -58.743214 6.468631 -13.982713 -7.150198 -2.875043 13.772729 -8.401492 -3.218241 0.347735 -34.211555 0.771655 -0.963028 -17.73337 2.62102 -1e-06 0.0 -1e-06 -17.346422 -20.095217 -4.201784 21.757559 -1.638378 3.866429 2e-06 -6.338823 1e-06 -1.697589 -22.591747 -6.194007 -1e-06 -5e-06 -4e-06 9.3395 -71.498405 -174.832565 62.986843 -31.942692 -8.344565 96.280144 -0.112191 1.114118 14.643934 -3.251086 23.252186 22.182117 -20.375898 49.933319 -16.701817 -16.743532 28.476536 -3e-06 -12.690604 -1e-06 15.803349 -17.401905 2.489225 -0.10592 -1.513856 -4.275882 -5.039042 -5.612873 -2.953556 4e-06 -11.020524 -2e-06 -6.1113 -15.895334 -3.840469 1e-06 -1e-06 -0.0 -10.283371 -5.680288 -4.341839 11.028296 -11.302407 -2.372633 -1.384269 -14.238585 -6.320117 -0.62544 -26.924198 -3.827604 -4.822095 -49.30542 -2.874002 -13.708528 -7.363476 -3.720938 18.141153 -14.052739 -3.242676 5e-06 -18.787271 -2e-06 -0.429713 -8.456045 2.555504 -0.0 -0.0 0.0 -15.923539 -20.094482 -5.473585 30.419214 -7.190825 1.735925 2e-06 -8.162929 1e-06 -1.861905 -22.861473 -6.167943 1e-06 -3e-06 -1e-06 -174.842468 -8.201625 -7.585473 10.2503 -0.062493 0.16699 -78.238701 7.443272 -6.295576 -6.245697 1.606718 2.135423 -0.999999 -0.0 -0.0 3.128531 -5.096644 -7.584263 12.678824 -0.020807 0.175636 -80.672363 -0.597547 -4.561217 -6.084398 0.653255 1.670896 -1.000002 0.0 -0.0 
0.0 0.0 0.0 0.0 -0.0 0.0 -0.786976 99.687363 5.771085 90.248482 3.479955 90.585762 -5.644387 0.298756 -0.335218 -12.865966 -0.76787 -0.407474 17.808004 1.487867 -2.378871 22.256992 7.454532 2.180596 -2.722616 -0.442083 0.444918 -26.902296 1.483927 -2.15904 5e-06 0.0 -0.0 0.029524 -0.045167 0.084905 0.012793 -0.059683 0.088714 -0.02679 -0.020941 0.074004 -152.62323 -77.216454 168.202576 46.78965 -50.534977 -15.13163 80.815819 -0.503313 -0.939595 10.716167 9.371652 -91.165703 17.636621 -26.322725 52.411175 -19.46665 -14.395592 29.410378 -1e-06 -8.774817 -1e-06 16.563564 -17.945734 5.996054 -0.609775 -1.795653 -3.889326 -4.807086 -11.046809 -2.937848 3e-06 -20.976011 2e-06 -5.019969 -25.033548 -4.031877 5e-06 1e-06 -1e-06 -10.634531 -5.686969 -3.565585 10.57327 -17.922947 -3.113898 2e-06 -13.821205 2e-06 -0.501777 -31.181498 -4.027013 -10.768594 -58.691795 6.513793 -13.982711 -7.150197 -2.87504 13.772726 -8.40149 -3.21824 0.347734 -34.211544 0.771656 -0.963027 -17.733366 2.621019 -1e-06 0.0 1e-06 -17.346411 -20.095211 -4.201778 21.757551 -1.638378 3.866426 1e-06 -6.338822 1e-06 -1.697587 -22.591738 -6.194003 1e-06 -5e-06 -3e-06 9.831923 -71.505615 -175.247437 61.110878 -31.010548 -8.454331 96.895821 0.155242 0.922046 15.378674 -3.278817 21.123037 22.182123 -20.375895 49.933323 -16.701817 -16.743528 28.476532 -4e-06 -12.690603 -2e-06 15.785178 -17.455807 2.524353 -0.105921 -1.513857 -4.275882 -5.039042 -5.612874 -2.953556 4e-06 -11.020525 -3e-06 -6.1113 -15.895334 -3.840475 -0.0 0.0 2e-06 -10.283374 -5.680288 -4.34184 11.028297 -11.302409 -2.372634 -1.384268 -14.238581 -6.320122 -0.625436 -26.924192 -3.827609 -4.824181 -49.274982 -2.858829 -13.708528 -7.363477 -3.720942 18.141155 -14.05274 -3.242675 8e-06 -18.78727 -3e-06 -0.429711 -8.456045 2.555504 0.0 0.0 0.0 -15.923539 -20.094486 -5.473586 30.419222 -7.190828 1.735928 2e-06 -8.162929 0.0 -1.861902 -22.861473 -6.167945 0.0 -3e-06 -3e-06 -174.844131 -8.140312 -7.591336 10.28205 -0.05896 0.168425 -78.297798 7.411191 -6.175825 -6.188409 1.605146 2.142113 -0.999998 -0.0 0.0 3.130208 -5.179934 -7.722518 12.80622 -0.028552 0.18754 -80.753906 -0.535886 -4.631671 -5.983683 0.647188 1.669193 -1.000002 0.0 -0.0 
0.0 0.0 0.0 0.0 -0.0 0.0 -0.723823 99.670891 5.724433 90.307625 3.45157 90.693367 -5.567786 0.196752 -0.300288 -12.827496 -0.774254 -0.392603 17.799513 1.410987 -2.413893 22.226961 7.313118 2.199461 -2.752613 -0.407919 0.252395 -26.919039 1.409297 -2.350836 6e-06 0.0 -0.0 0.026787 -0.043538 0.075712 -0.019332 -0.057593 0.077842 -0.062553 -0.0198 0.066015 -152.035507 -77.233627 167.698242 45.801922 -49.891731 -14.675355 81.265121 -0.497339 -0.956705 10.712894 9.462345 -92.070488 17.636618 -26.32272 52.411175 -19.466656 -14.395596 29.410385 1e-06 -8.774821 -2e-06 16.579525 -17.973301 6.025838 -0.609775 -1.795654 -3.889327 -4.807087 -11.046809 -2.937849 2e-06 -20.976015 -1e-06 -5.01997 -25.033546 -4.031878 6e-06 -1e-06 -2e-06 -10.634531 -5.68697 -3.565586 10.573271 -17.922945 -3.113902 3e-06 -13.821204 -0.0 -0.501773 -31.181494 -4.027018 -10.863636 -58.751476 6.553354 -13.98271 -7.150196 -2.87504 13.772723 -8.401489 -3.218242 0.347735 -34.211536 0.771652 -0.963028 -17.733368 2.621018 -1e-06 1e-06 -0.0 -17.346411 -20.095211 -4.20178 21.757555 -1.638375 3.866426 1e-06 -6.338823 0.0 -1.69759 -22.591742 -6.194005 -1e-06 -5e-06 -4e-06 10.177272 -71.583908 -175.524887 59.022133 -30.393383 -8.619044 97.379539 0.628557 0.853135 15.956176 -2.865321 19.616449 22.182106 -20.375889 49.933308 -16.701813 -16.74353 28.47653 -3e-06 -12.690601 -0.0 15.796698 -17.563129 2.55186 -0.105921 -1.513854 -4.275882 -5.039039 -5.612872 -2.953554 4e-06 -11.020519 -3e-06 -6.111296 -15.895328 -3.840472 1e-06 0.0 0.0 -10.283369 -5.680288 -4.341836 11.028295 -11.302406 -2.372633 -1.384268 -14.238579 -6.320119 -0.625439 -26.924187 -3.827602 -4.925183 -49.450764 -2.84964 -13.708524 -7.363473 -3.720937 18.14115 -14.052739 -3.242676 6e-06 -18.787266 -3e-06 -0.429711 -8.456042 2.555502 -0.0 0.0 0.0 -15.923536 -20.094482 -5.473581 30.41921 -7.190823 1.735924 2e-06 -8.162925 1e-06 -1.861903 -22.861467 -6.167943 -0.0 -2e-06 -2e-06 -174.960236 -8.048721 -7.564139 10.335896 -0.054599 0.158373 -78.365852 7.339089 -6.043145 -6.192568 1.614349 2.14811 -1.0 -0.0 -0.0 2.940388 -5.30668 -7.840877 13.111904 -0.033604 0.187047 -80.879395 -0.467755 -4.689723 -5.951632 0.624823 1.660716 -1.000002 1e-06 0.0 
0.0 0.0 0.0 0.0 -0.0 0.0 -0.652391 99.661072 5.648961 90.363739 3.373174 90.836769 -5.494783 0.086912 -0.260301 -12.795367 -0.780255 -0.385043 17.77285 1.296186 -2.473777 22.168274 7.088956 2.221184 -2.762367 -0.384432 0.099596 -26.924337 1.326479 -2.540994 6e-06 -0.0 0.0 0.026347 -0.038229 0.075481 -0.032209 -0.047448 0.076823 -0.077804 -0.019474 0.066235 -151.613464 -77.214233 167.355515 45.109943 -49.294464 -14.174873 81.731949 -0.448588 -0.902944 10.60547 9.619888 -93.141525 17.636618 -26.322741 52.411213 -19.466665 -14.3956 29.410402 -1e-06 -8.774819 0.0 16.560749 -17.984037 6.041038 -0.609777 -1.795655 -3.889328 -4.807086 -11.046808 -2.937851 3e-06 -20.976015 0.0 -5.019969 -25.033558 -4.031879 6e-06 1e-06 -2e-06 -10.634534 -5.68697 -3.565589 10.573272 -17.922955 -3.113902 3e-06 -13.821209 1e-06 -0.501777 -31.181507 -4.027015 -10.932965 -58.842312 6.567996 -13.982712 -7.150197 -2.875041 13.772731 -8.40149 -3.218244 0.347735 -34.211555 0.771657 -0.963028 -17.73337 2.621021 0.0 0.0 1e-06 -17.346416 -20.095217 -4.201783 21.757557 -1.638379 3.866426 0.0 -6.338821 1e-06 -1.697586 -22.591742 -6.194008 -0.0 -6e-06 -2e-06 10.46427 -71.711273 -175.746948 57.012585 -30.171213 -8.975832 97.700607 1.171796 0.81792 16.295912 -2.043319 18.462208 22.182117 -20.375898 49.933319 -16.701809 -16.74353 28.476528 -3e-06 -12.690603 -1e-06 15.799769 -17.670565 2.596322 -0.105922 -1.513856 -4.27588 -5.039039 -5.612872 -2.953557 4e-06 -11.020525 -2e-06 -6.111298 -15.895332 -3.840472 1e-06 0.0 1e-06 -10.283373 -5.680287 -4.34184 11.028296 -11.302406 -2.37263 -1.384268 -14.238581 -6.320124 -0.625437 -26.924191 -3.827602 -5.044514 -49.648945 -2.855116 -13.708527 -7.363476 -3.720942 18.141151 -14.052738 -3.242672 7e-06 -18.78727 -0.0 -0.429711 -8.456042 2.555504 0.0 -0.0 0.0 -15.923536 -20.094482 -5.473585 30.41921 -7.190825 1.735924 2e-06 -8.162927 -1e-06 -1.861901 -22.861469 -6.167942 -0.0 -4e-06 -1e-06 -175.142929 -7.951793 -7.527833 10.356191 -0.054805 0.150861 -78.410553 7.276334 -5.891803 -6.15871 1.617066 2.153595 -0.999998 -0.0 0.0 2.7039 -5.426859 -7.921759 13.376434 -0.036396 0.180681 -80.964218 -0.47537 -4.768972 -5.932104 0.601323 1.651832 -1.000001 0.0 0.0 
